<svg id="Layer_1" xmlns="http://www.w3.org/2000/svg" viewBox="0 0 808.1 310.1"><style>.Arched_x0020_Green{fill:url(#SVGID_1_);stroke:#fff;stroke-width:.25;stroke-miterlimit:1}.st0{fill:#ac1f2d}.st1{fill:#ac162c}.st2{fill:#be955b}</style><linearGradient id="SVGID_1_" gradientUnits="userSpaceOnUse" x1="-189.422" y1="633.12" x2="-188.715" y2="632.413"><stop offset="0" stop-color="#20ac4b"/><stop offset=".983" stop-color="#19361a"/></linearGradient><path class="st0" d="M800.3 225c4.4 0 7.9 3.5 7.9 7.9s-3.5 7.9-7.9 7.9-7.9-3.5-7.9-7.9c0-4.3 3.5-7.9 7.9-7.9zm0 14.9c3.9 0 6.8-3.1 6.8-7 0-3.8-3-6.9-6.8-6.9-3.9 0-6.8 3.1-6.8 7-.1 3.8 2.9 6.9 6.8 6.9zm.1-6.5h-2v4.2h-1.1v-9.4h3.6c2.1 0 3.1.9 3.1 2.6 0 1.6-1.1 2.4-2.4 2.6l2.8 4.2h-1.3l-2.7-4.2zm-2-.9h2.3c1.2 0 2.2-.3 2.2-1.7 0-1.3-1.1-1.7-2.2-1.7h-2.3v3.4z"/><path class="st1" d="M465.7 228.3h11v12h-65.3c16.1-11.6 28.8-23 47-40.9v21.3c-.1 4.2 3.5 7.6 7.3 7.6zm-314.2 12.6h69.3v-12.1h-14.5c-4.4 0-7.6-3.5-7.6-7.7v-28.4h27.4v-12h-27.4v-12.4c0-16.1 13.1-19.6 18.2-19.6 3.8 0 6.5 1 8 1.9-1 1.7-1.5 3.7-1.5 5.8 0 6.4 5.2 11.6 11.6 11.6 6.4 0 11.6-5.2 11.6-11.6 0-2.5-.8-4.7-2.1-6.6-2.9-5.3-11.3-11-28-11-21.4 0-44.5 9.5-44.2 36.3v46.1c0 2.7-2.3 7.6-7.7 7.6h-12.9v12.1zm81.7-47.9h19.3v26.8c0 11.6 10 23.9 28.6 23.9 20.1 0 35.3-11.3 35.3-26.3V216h-12.2l-.2 1.2c-.1.5-1.9 13-15.8 13-5.2 0-8.6-4.2-8.6-8.1V193c2.4 0 29.1.1 29.1.1V181h-29.1v-38.7h-3.3l-12.4-.1c-1.7 30.4-17.9 38.3-30.8 38.9V193zm557.7 61.5c-.5 26.2-41.5 29.7-57.4 29.3-21.8-.6-47.9-10.2-48.4-25.2h23.8c2.2 9 15.4 12.2 25.5 12.2 17.1 0 29-3.7 29-15.6 0-9-7.8-13.7-19.3-13.7-9.6-.1-27.5 0-35.4 0-22.4 0-27.1-10.6-27.1-18.3 0-10.3 11.7-14 11.7-14-6.2-3.9-10-10.1-10-16.2 0-14.5 21-26.3 47-26.3 12.8 0 24.3 2.9 32.8 7.5 0 0 .2.1.5.3 4.1-2.5 6.7-6.4 6.7-6.4h21.3s-3.9 9.9-16.2 17.8c1.1 2.1 1.8 4.5 1.8 7 0 14.5-15.7 26.3-47 26.3-7.7 0-15-1.1-21.5-2.9-5.3 1.5-5.2 9 2 9.2 8.7.2 20 .3 34.2.3 38.8-.1 46.3 15.3 46 28.7zm-80.2-61.8c0 8.5 8.6 15.4 19.3 15.4 10.6 0 19.3-6.9 19.3-15.4s-8.7-15.4-19.3-15.4c-10.6 0-19.3 6.9-19.3 15.4zM175.8 310C11 311.8.1 227.8 0 203.2c-.1-24.3 17.9-69.7 81.6-69.7 66 0 75.1 55.6 75 57.3H72.5c-4.3 30.2 13.8 41.8 28.9 41.8 11.2 0 20.8-8 24.1-17.3h27.9c-6.9 18.8-26.1 34.4-50.7 34.4-41.6 0-60.4-25.8-59.1-50.8 1.8-35.3 35.7-41.7 45.8-39.4-11.1 6-14.4 16.1-15.3 19.7h45.4c-.5-4.9-8.3-27.7-38.7-27.7-27.5 0-48.5 20-48.9 46.6-1.5 91.5 147.5 90.7 143.3 90.8 75.8 2 140.1-18.1 191.3-44.1l3.5-1.6c-3.5 1.6-48.5-2.6-48.5-37.6 0-17.1 9.8-37 44.3-37 38.7 0 43.3 34.4 43.3 34.8l.2 1.5h-63.4c0 .4-.1.9-.1 1.3 0 17.8 14.1 23.5 26.2 25.2 0 0 16 1.9 30.1-6.6 4.7-2.8 28.4-19.5 29.6-20.3V160c0-3.5-2.8-7.6-7.6-7.6h-7.9v-11.7H458l.1 43.1c29.3-25.3 45.1-45.5 45.1-45.5S393.2 307.8 175.8 310zm172.3-116.3h33.6c-1.2-3.8-5.5-14.3-16.2-14.3-12.3 0-16.2 10.5-17.4 14.3zm314.1 26.9v-27.7c0-14.8-13.1-25.1-33.1-25.1-15.6 0-24.9 7.5-29.1 11.5-.1-3.2-.4-8.8-.4-8.8h-41.1v12.3h8.6c4.5 0 7.6 3.6 7.6 7.6v30.3c0 3.7-3.2 7.6-7.6 7.6h-9.5v11.9h56v-12h-6.1c-4.2 0-7.6-3.5-7.6-7.6v-17.3c0-12.6 10.4-22.9 23.3-22.9 12.1 0 13.9 9.3 14 10.5v29.9c0 3.8-3.2 7.4-7.6 7.4h-6.9v12h53.1v-11.9h-5.7c-4.6 0-7.9-3.4-7.9-7.7zm-131.3-.1v-49.9h-40.6l.1 12.1h7.8c4.7 0 7.7 3.9 7.7 7.6v30.3c0 4-3.5 7.6-7.3 7.6h-12.8v12h63.1v-12h-10.6c-2.8 0-7.4-2.3-7.4-7.7zm-1-85.5c-1.5 1.5-3.2 2.7-5 3.7l20.5 27.3-15.5-31zm-62.5-91.3l35.6 60.5c1.9-1.5 4.1-2.6 6.5-3.3l-42.1-57.2zm68 80.7l76.1-3.9-76-3.4c.2 1.1.3 2.3.3 3.5 0 1.3-.1 2.5-.4 3.8zm-40.3-7.2l-90.3 3.2 90.2 3.3c-.2-1-.3-2-.3-3.1.2-1.2.3-2.3.4-3.4zm35.7-10.1L564 47l-39 55.5c2.2 1.2 4.1 2.7 5.8 4.6z"/><path class="st2" d="M615.4 120.5l14.1-3.1c1.8-.5 2.3-2 3.7-6.7l1.7-7.3 1.5 7.4c1.2 4.8 4 6.3 5.7 6.8l16.1 3.2-16.2 2.7c-1.8.4-4.6 1.8-5.9 6.6l-1.7 7.2-1.5-7.3c-1.2-4.9-1.7-6.2-3.4-6.7l-14.1-2.8zM440.7 34.4l7.1-2.5c4.8-1.5 6.3-1.9 7.6-.7l9.1 8.6-4.1-11.8c-.5-1.8.4-2.9 3.8-6.5l5.2-5.3-7 2.5c-4.8 1.5-7.5-.1-8.8-1.4l-11.1-12 6.2 15.2c.5 1.8.8 4.9-2.6 8.6l-5.4 5.3zm130.1-5.8l-4 14 10.1-10c1.7-1.6 4.1-1.9 9.3.4l8.7 3.2-6.5-6.6c-4.2-4.6-3.7-8.5-3-10.7L593.3 0l-14 14.9c-1.7 1.6-5.1 3.5-11 1.6l-8.8-3.3 6.6 6.7c3.7 3.7 5.3 5.7 4.7 8.7zM437.5 65.2c-2 19.4-3.6 21-22.9 22.9 19.4 2 21 3.6 22.9 23 2-19.4 3.6-21 23-23-19.4-2-21-3.6-23-22.9zm154.4 0c-2 19.4-3.6 21-22.9 22.9 19.4 2 21 3.6 22.9 23 2-19.4 3.6-21 23-23-19.4-2-21-3.6-23-22.9zm-87.4-54.8c-2.1 20.3-3.8 22-24.1 24.1 20.3 2.1 22 3.8 24.1 24.1 2.1-20.3 3.8-22 24.1-24.1-20.3-2.1-22-3.8-24.1-24.1zm57.4 117.7c-6.9 11.3-8.3 11.8-20.8 7.4 11.3 6.9 11.8 8.3 7.4 20.8 6.9-11.3 8.3-11.8 20.8-7.4-11.3-6.9-11.8-8.3-7.4-20.8zm-80.2-41.4c-5.8 9.9-7.1 10.4-17.9 6.7 9.9 5.8 10.4 7.1 6.7 17.9 5.8-9.9 7.1-10.4 17.9-6.7-9.9-5.8-10.4-7-6.7-17.9zm63.1 17.9c10.9-3.7 12.1-3.2 18 6.7-3.7-10.9-3.2-12.1 6.7-17.9-10.9 3.7-12.1 3.2-17.9-6.7 3.5 10.9 3.1 12.1-6.8 17.9zm3.4-51.8c-9.2-1-9.9-1.7-10.8-10.9-1 9.2-1.7 9.9-10.9 10.8 9.2 1 9.9 1.7 10.8 10.9 1-9.2 1.7-9.9 10.9-10.8zm35.5 15.5c-8.4-.9-9.1-1.6-9.9-10-.9 8.4-1.6 9.1-10 9.9 8.4.9 9.1 1.6 9.9 10 .9-8.4 1.6-9.1 10-9.9zm-111.5.9c-9.2-1-9.9-1.7-10.8-10.9-1 9.2-1.7 9.9-10.9 10.8 9.2 1 9.9 1.7 10.8 10.9 1-9.2 1.7-9.9 10.9-10.8zm45.2-9.9c-1.4 13.1-2.5 14.2-15.7 15.5 13.1 1.4 14.2 2.5 15.5 15.7 1.4-13.2 2.5-14.2 15.7-15.5-13.2-1.4-14.2-2.5-15.5-15.7z"/></svg>